<?xml version="1.0" encoding="UTF-8"?>
<svg width="40px" height="40px" viewBox="0 0 40 40" version="1.1" xmlns="http://www.w3.org/2000/svg" xmlns:xlink="http://www.w3.org/1999/xlink" style="background: #263238;">
    <!-- Generator: Sketch 43.1 (39012) - http://www.bohemiancoding.com/sketch -->
    <title>Artboard</title>
    <desc>Created with Sketch.</desc>
    <defs></defs>
    <g id="Page-1" stroke="none" stroke-width="1" fill="none" fill-rule="evenodd">
        <g id="Artboard" transform="translate(-1.000000, -10.000000)" fill="#F7F7F7">
            <path d="M20.2619025,19.607775 C20.2428414,19.5569926 20.2242254,19.5080468 20.2060547,19.4609375 C18.3343005,14.626929 15.9498843,12.2099609 13.0527344,12.2099609 C11.278637,12.1936848 10.3916016,12.836582 10.3916016,14.1386719 C10.3916016,14.545575 10.5421534,14.9646788 10.8432617,15.3959961 C11.14437,15.8273134 11.6285774,16.0429687 12.2958984,16.0429687 C12.4586597,16.0429687 12.682453,16.0266929 12.9672852,15.9941406 C13.2521173,15.9615884 13.4433589,15.9453125 13.5410156,15.9453125 C14.8756577,15.9453125 16.0841417,16.5800718 17.1665039,17.8496094 C17.6785799,18.4502399 18.1187015,19.0362938 18.4868712,19.607775 L20.2619025,19.607775 Z M21.348753,22.9 C21.6322432,23.8208324 21.9512132,24.8880188 22.3056641,26.1015625 C23.9983809,31.8958623 25.4713479,36.1275908 26.7246094,38.796875 C27.9778708,41.4661592 29.2718032,43.0856091 30.6064453,43.6552734 C30.6389976,43.6552734 30.7366528,43.6878252 30.8994141,43.7529297 L31.3266602,43.9238281 C31.4487311,43.9726565 31.591145,44.0458979 31.7539062,44.1435547 C31.9166675,44.2412114 32.0387366,44.3510736 32.1201172,44.4731445 C32.2014978,44.5952155 32.2869462,44.7539053 32.3764648,44.9492187 C32.4659835,45.1445322 32.5107422,45.3642566 32.5107422,45.6083984 C32.5107422,46.1129583 32.3439144,46.552407 32.0102539,46.9267578 C31.6765934,47.3011086 31.2412136,47.4882812 30.7041016,47.4882812 C29.4020117,47.4882812 28.1162173,46.1089005 26.8466797,43.3500977 C25.5771421,40.5912948 23.9414163,35.9404624 21.9394531,29.3974609 C20.8001245,32.3922676 19.6241923,35.2812361 18.4116211,38.0644531 C17.1990499,40.8476702 16.25098,42.9309827 15.5673828,44.3144531 C14.8837856,45.6979236 14.4606128,46.4791658 14.2978516,46.6582031 C14.1025381,46.8860688 13.7200549,47 13.1503906,47 L11.5390625,47 C10.806637,47 10.4404297,46.8128274 10.4404297,46.4384766 C10.4404297,46.2106108 10.8107059,45.4130928 11.5512695,44.0458984 C12.2918331,42.6787041 13.4596274,40.2129084 15.0546875,36.6484375 C16.6497476,33.0839666 18.2854734,29.0149968 19.9619141,24.4414062 C20.0595708,24.0670554 20.1083984,23.7903655 20.1083984,23.6113281 C20.1083984,23.4711281 20.05808,23.2340195 19.9574424,22.9 L21.348753,22.9 Z" id="Combined-Shape"></path>
            <path d="M8.91162143,21.9999993 C12.4084763,21.9999993 29.4952294,21.9999993 31.4218129,21.9999993 C32.6058652,21.9999993 33.1592961,21.7297608 33.6214248,21.4436845 C34.0835536,21.1576083 34.2569721,20.3052862 32.8271625,20.3052862 C31.3973529,20.3052862 12.3757957,20.3052862 10.6706789,20.3052862 C10.1044996,20.3052862 8.45966143,20.2113842 7.75224577,20.8150563 C7.07127982,21.3961576 7.33615125,21.9999993 8.91162143,21.9999993 Z" id="Line" stroke-opacity="0" stroke="#263238" stroke-width="0.8" stroke-linecap="square"></path>
        </g>
    </g>
</svg>